<svg xmlns="http://www.w3.org/2000/svg" xmlns:xlink="http://www.w3.org/1999/xlink" viewBox="0 0 40 40"><defs><style>.cls-1{fill:none;}.cls-2{clip-path:url(#clip-path);}.cls-3{fill:#fff;}.cls-4{fill:#213a6e;}.cls-5{fill:#c71732;}.cls-6{fill:#010202;}.cls-7{fill:#010102;}.cls-8{fill:#010101;}.cls-9{fill:#020303;}.cls-10{fill:#020203;}.cls-11{fill:#020202;}</style><clipPath id="clip-path"><circle class="cls-1" cx="20" cy="20" r="20"/></clipPath></defs><g id="Capa_2" data-name="Capa 2"><g id="Capa_1-2" data-name="Capa 1"><g class="cls-2"><path class="cls-3" d="M40,40H.37C.09,40,0,40,0,39.65Q0,20,0,.34C0,.05.07,0,.34,0H39.65c.16,0,.35-.09.35.25Q40,20.12,40,40Z"/><path class="cls-4" d="M26.29,22.86a6.57,6.57,0,0,1-5.1,3.95,6.82,6.82,0,0,1-8-6,6,6,0,0,1,.59-3.62A1.66,1.66,0,0,1,14,18a9.06,9.06,0,0,0,.25,1.26,3.08,3.08,0,0,0,4.57,1.62c.68-.45,1.19-1.08,1.83-1.56a4.66,4.66,0,0,1,1.6-.85,3.29,3.29,0,0,1,4.17,3A3.17,3.17,0,0,1,26.29,22.86Z"/><path class="cls-5" d="M26.29,22.86a5.4,5.4,0,0,0-.12-2A3.2,3.2,0,0,0,21.39,19a8.63,8.63,0,0,0-1.62,1.33,4.23,4.23,0,0,1-2.06,1.18,3.16,3.16,0,0,1-3.47-1.81,7.2,7.2,0,0,1-.44-2.43,6.26,6.26,0,0,1,2.5-2.95,6.88,6.88,0,0,1,10.58,5A6.23,6.23,0,0,1,26.29,22.86Z"/><path class="cls-6" d="M11.92,10.48l-.15.23c-1.16,1.73-2.33,3.46-3.48,5.2-.15.22-.24.26-.47.1-.66-.47-.67-.46-.21-1.14q1.59-2.37,3.17-4.75c.16-.24.28-.29.5-.09s.32.21.48.32Z"/><path class="cls-6" d="M10.45,30.5c0,.11-.08.13-.14.18-.72.56-.72.56-1.24-.21C8,28.91,7,27.35,5.94,25.79c-.17-.25-.19-.38.1-.55.65-.39.63-.41,1,.19l3.21,4.82C10.35,30.33,10.4,30.42,10.45,30.5Z"/><path class="cls-6" d="M29.12,9.83l3.69,5.57s.06.07.06.09c-.14.36-.53.41-.78.63s-.21-.07-.27-.16l-3.11-4.68-.12-.2c-.42-.62-.42-.62.22-1.05Z"/><path class="cls-7" d="M10.46,9.57l-.11.18C9.17,11.5,8,13.25,6.83,15c-.12.19-.2.2-.38.08-.73-.48-.74-.47-.26-1.19,1.06-1.58,2.13-3.16,3.18-4.75.14-.22.25-.28.46-.09a5.72,5.72,0,0,0,.48.32C10.37,9.42,10.46,9.45,10.46,9.57Z"/><path class="cls-7" d="M13.31,11.46l-.12.2q-1.76,2.61-3.49,5.23c-.14.22-.24.24-.44.08s-.58-.29-.62-.48.25-.45.4-.67c1.06-1.58,2.12-3.16,3.16-4.74.16-.24.27-.31.5-.1a5.72,5.72,0,0,0,.48.32C13.24,11.35,13.32,11.37,13.31,11.46Z"/><path class="cls-8" d="M13.32,28.61c0,.09-.08.11-.12.15-.75.6-.75.6-1.28-.2L8.78,23.85c-.15-.21-.2-.32.08-.49.68-.42.67-.44,1.11.22l3.18,4.78Z"/><path class="cls-9" d="M34.31,25.5a1.4,1.4,0,0,1-.12.18c-.48.72-1,1.44-1.43,2.16-.12.18-.19.22-.38.09-.72-.48-.72-.47-.25-1.19.38-.57.76-1.14,1.13-1.71.11-.17.2-.2.36-.08s.36.25.55.37S34.31,25.39,34.31,25.5Z"/><path class="cls-9" d="M8.05,23.92c.12,0,.14.1.19.17.5.74,1,1.48,1.49,2.22.11.16.08.22-.07.33-.73.53-.73.53-1.23-.23-.38-.57-.76-1.14-1.15-1.7-.1-.15-.11-.23.06-.33S7.82,24.07,8.05,23.92Z"/><path class="cls-10" d="M31.48,16.49c-.88.74-.88.74-1.47-.16-.35-.53-.69-1.07-1.06-1.59-.13-.18-.09-.27.08-.39.71-.48.71-.49,1.19.23Z"/><path class="cls-9" d="M30,27.05c.23.15.52.33.78.53.09.06,0,.13,0,.19l-1.52,2.29c0,.06-.08.17-.17.12-.29-.18-.56-.37-.83-.57-.07,0,0-.11.05-.16.51-.78,1-1.55,1.54-2.32C29.85,27.08,29.87,27,30,27.05Z"/><path class="cls-11" d="M32.25,11.47c0,.09-.06.1-.1.14-.75.62-.75.62-1.29-.19-.37-.57-.74-1.14-1.13-1.71-.11-.16-.09-.24.08-.35.73-.49.73-.5,1.21.24l1.11,1.68Z"/><path class="cls-11" d="M30.53,31.19c-.31-.22-.76-.38-.84-.66s.3-.57.49-.86c.33-.51.68-1,1-1.52.12-.18.2-.21.39-.08.73.46.73.46.26,1.17Z"/><path class="cls-11" d="M26.74,28.66l1.63-2.46s0-.06,0-.07c.38-.07.54.3.83.41s.18.14.08.29L27.8,29.12c-.1.16-.19.13-.31,0S27,28.83,26.74,28.66Z"/><path class="cls-11" d="M31.46,23.6l-.1.15c-.49.73-1,1.46-1.45,2.2-.12.19-.21.2-.39.08-.73-.47-.73-.46-.24-1.19.36-.55.74-1.09,1.08-1.66.15-.24.27-.24.47-.08s.32.21.48.32S31.46,23.5,31.46,23.6Z"/><path class="cls-11" d="M31.14,27.11c-.3-.2-.58-.39-.85-.59-.09-.06,0-.14.05-.19.5-.77,1-1.53,1.52-2.29,0,0,0,0,0,0,.37-.17.5.21.76.32.1,0,.34.07.19.31-.53.78-1,1.57-1.57,2.35A.46.46,0,0,1,31.14,27.11Z"/><path class="cls-11" d="M32.55,12c.13,0,.14.09.18.15l1.5,2.26c.05.08.15.16,0,.26l-.74.49c-.12.08-.16,0-.21-.11-.51-.76-1-1.52-1.51-2.29,0,0-.08-.16-.06-.17C32,12.41,32.28,12.21,32.55,12Z"/><path class="cls-11" d="M11.05,30.18c-.13,0-.16-.07-.2-.13-.5-.75-1-1.51-1.5-2.26-.1-.14-.09-.2.05-.3.73-.57.73-.57,1.24.2.37.55.73,1.11,1.11,1.64.16.23.13.34-.1.46S11.24,30.06,11.05,30.18Z"/><path class="cls-11" d="M28.49,14c-.55-.84-1.1-1.66-1.64-2.47,0,0-.07-.08-.06-.1.18-.32.53-.41.8-.61s.19.06.25.14c.48.73,1,1.47,1.45,2.2.1.14.13.23-.05.34S28.75,13.85,28.49,14Z"/></g></g></g></svg>