<svg xmlns="http://www.w3.org/2000/svg" xmlns:xlink="http://www.w3.org/1999/xlink" width="122.053" height="221.326" viewBox="0 0 122.053 221.326">
    <defs>
        <radialGradient id="radial-gradient" cx="0.483" cy="0.494" r="0.036" gradientTransform="matrix(1.716, -0.327, -21.762, -34.615, -23.759, 26.83)" gradientUnits="objectBoundingBox">
        <stop offset="0"/>
        <stop offset="1" stop-opacity="0"/>
        </radialGradient>
    </defs>
    <g id="layer1" transform="translate(12.133 6.421)">
        <g id="g4182">
        <g id="g5747" transform="translate(81.631 113.771)">
            <path id="path4155" d="M-15.264-119.872l-.087,48.844-.087,48.844-4.012-11.339v-.029l-5.2,108.737c5.117,14.421,7.85,22.125,7.879,22.154s2.936.2,6.454.378c10.641.523,23.841,1.657,33.871,2.907a22.974,22.974,0,0,0,4.448.32c.145-.116.174-49.833.145-110.51l-.087-110.307h-43.32Z" fill="#b1060f" stroke="#000" stroke-width="0.291"/>
            <path id="path4157" d="M-93.618-120.017V-9.594c0,60.736.058,110.481.145,110.568s3.838-.291,8.373-.785,10.786-1.134,13.9-1.4c4.768-.407,19.073-1.308,20.7-1.337.494,0,.523-2.471.581-46.78l.087-46.78,3.46,9.769c.523,1.512.7,1.977,1.221,3.46l5.2-108.708c-1.1-3.111-.523-1.483-1.774-5.03-4.245-12.008-7.85-22.154-8-22.62l-.291-.814H-93.618Z" fill="#b1060f" stroke="#000" stroke-width="0.291"/>
            <path id="path5715" d="M-15.264-119.872l-.087,48.844-.087,48.844-4.012-11.339v-.029l-5.2,108.737c5.117,14.421,7.85,22.125,7.879,22.154s2.936.2,6.454.378c10.641.523,23.841,1.657,33.871,2.907a22.974,22.974,0,0,0,4.448.32c.145-.116.174-49.833.145-110.51l-.087-110.307h-43.32Z" fill="#b1060f" stroke="#000" stroke-width="0.291"/>
            <path id="path5717" d="M-93.618-120.017V-9.594c0,60.736.058,110.481.145,110.568s3.838-.291,8.373-.785,10.786-1.134,13.9-1.4c4.768-.407,19.073-1.308,20.7-1.337.494,0,.523-2.471.581-46.78l.087-46.78,3.46,9.769c.523,1.512.7,1.977,1.221,3.46l5.2-108.708c-1.1-3.111-.523-1.483-1.774-5.03-4.245-12.008-7.85-22.154-8-22.62l-.291-.814H-93.618Z" fill="#b1060f" stroke="#000" stroke-width="0.291"/>
            <path id="path5719" d="M-93.618-120.017v61.986L-49.949,57.8c0-2.646,0-4.1.029-7.123l.087-46.78,3.46,9.769C-27.184,68.091-16.863,97.282-16.8,97.34c.029.029,2.936.2,6.454.378,10.641.523,23.841,1.657,33.871,2.907a22.974,22.974,0,0,0,4.448.32c.087-.087.145-24.451.145-58.846L-15.322-82.861l-.029,11.833-.087,48.844-4.012-11.339C-23.375-44.6-25.992-52.013-41.779-96.613c-4.245-12.008-7.85-22.154-8-22.62l-.291-.814H-93.618v.029Z" fill="url(#radial-gradient)"/>
            <path id="path5721" d="M-93.618-120.017l43.756,124V3.925l3.46,9.769c19.218,54.4,29.539,83.588,29.6,83.646.029.029,2.936.2,6.454.378,10.641.523,23.841,1.657,33.871,2.907a22.724,22.724,0,0,0,4.419.32L-15.438-22.213v.029l-4.012-11.339C-23.375-44.6-25.992-52.013-41.779-96.613c-4.245-12.008-7.85-22.154-8-22.62l-.291-.814H-71.842l-21.776.029Z" fill="#e50914"/>
        </g>
        </g>
    </g>
</svg>
