<svg xmlns="http://www.w3.org/2000/svg" width="1024" height="276.742" viewBox="0 0 1024 276.742">
    <path id="Netflix_logo_full" d="M140.8,258.9c-15.4,2.7-31.079,3.516-47.294,5.676L44.051,119.724V270.8c-15.4,1.621-29.457,3.783-44.051,5.945V0H41.08L97.292,157.021V0H140.8Zm85.131-157.558c16.757,0,42.431-.811,57.835-.811v43.24c-19.189,0-41.619,0-57.835.811v64.322c25.4-1.621,50.809-3.785,76.482-4.6v41.617L182.692,255.39V0H302.416V43.241H225.934Zm237.284-58.1H418.356V242.15c-14.594,0-29.188,0-43.239.539V43.242H330.255V0H463.22Zm70.266,55.132h59.187v43.24H533.484v98.1H491.051V0H611.859V43.241H533.484ZM682.125,201.881c24.594.539,49.456,2.434,73.51,3.783v42.7c-38.646-2.434-77.293-4.863-116.75-5.676V0h43.24Zm109.994,49.457c13.783.812,28.377,1.623,42.43,3.242V0h-42.43ZM1024,0,969.137,131.615,1024,276.742c-16.217-2.162-32.432-5.135-48.648-7.838L944.274,188.91l-31.617,73.51c-15.678-2.7-30.812-3.516-46.484-5.678l55.672-126.75L871.576,0h46.482l28.377,72.7L976.705,0Z" fill="#d81f26"/>
</svg>
